PathFileType	4	(x/y/z)	S04_M20_T03.trc
DataRate	CameraRate	NumFrames	NumMarkers	Units	OrigDataRate	OrigDataStartFrame	OrigNumFrames
240	240	4	51	mm	240	495	565
Frame#	Time	Sternum			R.Acromium			L.Acromium			Top.Head			R.ASIS			L.ASIS			R.PSIS			L.PSIS			R.Great.Tro			L.Great.Tro			R.Iliac.Crest			L.Iliac.Crest			V.Sacral			R.Thigh.Upper.Post			R.Thigh.Lower.Ant			R.Thigh.Lower.Post			R.Thigh.Upper.Ant			R.Knee.Lat			R.Knee.Med			R.Shank.Upper.Post			R.Shank.Lower.Ant			R.Shank.Lower.Post			R.Shank.Upper.Ant			R.Ankle.Lat			R.Ankle.Med			R.Heel.Upper			R.Heel.Med			R.Heel.Lat			R.Toe.Lat			R.Toe.Med			R.Toe.Tip			L.Thigh.Upper.Post			L.Thigh.Lower.Ant			L.Thigh.Lower.Post			L.Thigh.Upper.Ant			L.Knee.Lat			L.Knee.Med			L.Shank.Upper.Post			L.Shank.Lower.Ant			L.Shank.Lower.Post			L.Shank.Upper.Ant			L.Ankle.Lat			L.Ankle.Med			L.Heel.Upper			L.Heel.Med			L.Heel.Lat			L.Toe.Lat			L.Toe.Med			L.Toe.Tip			Cervical.Spine			Back			
		X1	Y1	Z1	X2	Y2	Z2	X3	Y3	Z3	X4	Y4	Z4	X5	Y5	Z5	X6	Y6	Z6	X7	Y7	Z7	X8	Y8	Z8	X9	Y9	Z9	X10	Y10	Z10	X11	Y11	Z11	X12	Y12	Z12	X13	Y13	Z13	X14	Y14	Z14	X15	Y15	Z15	X16	Y16	Z16	X17	Y17	Z17	X18	Y18	Z18	X19	Y19	Z19	X20	Y20	Z20	X21	Y21	Z21	X22	Y22	Z22	X23	Y23	Z23	X24	Y24	Z24	X25	Y25	Z25	X26	Y26	Z26	X27	Y27	Z27	X28	Y28	Z28	X29	Y29	Z29	X30	Y30	Z30	X31	Y31	Z31	X32	Y32	Z32	X33	Y33	Z33	X34	Y34	Z34	X35	Y35	Z35	X36	Y36	Z36	X37	Y37	Z37	X38	Y38	Z38	X39	Y39	Z39	X40	Y40	Z40	X41	Y41	Z41	X42	Y42	Z42	X43	Y43	Z43	X44	Y44	Z44	X45	Y45	Z45	X46	Y46	Z46	X47	Y47	Z47	X48	Y48	Z48	X49	Y49	Z49	X50	Y50	Z50	X51	Y51	Z51	

495	2.0583	1666.9	1262.3	274.04	1556.6	1489.7	462.12	1522.3	1479	111.42	1559.5	1816.5	277.25	1657	981.84	403.67	1623.5	996.04	153.36	1432.9	1018.9	337.82	1430.4	1026.2	256.73	1584.6	904.98	483.19	1487.6	922.38	107.89	1572.7	1070.7	462.22	1521.4	1079.8	122.26	1410.3	980.95	297.8	1681	661.91	475.99	1781.8	620.88	434.8	1720.7	581.15	459.48	1742.2	722.99	456.58	1771.8	534.87	448.63	1747.6	516.34	313.88	1788.8	301.6	447.63	1882.5	257.63	411.43	1817.2	237.98	434.36	1851.2	320.31	432.73	1879.1	133.73	419.05	1895.1	158.92	330.03	1837.9	76.54	359.42	1860.9	55.11	328.37	1856.2	48.795	393.27	2009.8	118.91	446.82	2041.4	143.17	332.85	2085.2	188.78	382.62	1424.8	701.46	128.51	1486.1	589.35	132.61	1415.7	612.53	140.12	1490.5	678.8	116.07	1432.6	509.35	146.22	1439.6	497.73	272.85	1306.6	350.42	154.92	1357.9	251.02	159.65	1297	273.71	164.32	1367.7	326.66	149.54	1306.1	107.83	183.97	1309	118.54	278.5	1226	79.998	229.06	1230.3	52.743	260.82	1228.7	54.853	198.65	1411.3	42.965	161.53	1442.1	42.042	278.91	1500.6	50.504	231.3	1490.1	1536.6	295.65	1405.6	1281.1	279.79
496	2.0625	1672	1261.2	274.25	1562.2	1488.6	462.68	1527.2	1478.1	112.03	1564.6	1815.6	277.9	1662.4	980.79	403.64	1628.1	995.04	153.45	1438.2	1018.1	338.58	1435.4	1025.4	257.51	1590.3	904.02	483.47	1491.8	921.75	108.45	1578.3	1069.6	462.54	1525.9	1078.9	122.72	1415.4	980.13	298.63	1686	660.92	476.44	1786.7	619.78	435.11	1725.7	580.12	460.02	1747.2	721.95	456.74	1777	534.09	449.24	1752.7	515.06	314.47	1797.4	301.07	448.24	1891.7	258.54	411.98	1826.8	237.92	434.91	1859.4	320.73	433.3	1890.2	134.58	419.53	1905.8	160.04	330.53	1850	76.657	359.98	1873.2	55.624	328.88	1868.6	49.293	393.73	2021	121.93	447.38	2052.4	146.61	333.45	2095.3	192.94	383.26	1427.8	701.36	129.02	1488.7	588.89	132.83	1418.4	612.42	140.58	1493.5	678.35	116.38	1434.8	509.1	146.51	1442.2	497.33	273.19	1308.1	350.83	155.36	1358.8	251.15	159.92	1298.1	274.17	164.73	1369.1	326.74	149.83	1306.2	108.21	184.36	1309.4	118.83	278.81	1226.2	80.475	229.48	1230.4	53.125	261.18	1228.7	55.377	199	1411.3	43.004	161.64	1442.2	41.911	278.98	1500.7	50.272	231.3	1495.4	1535.6	296.34	1410.7	1280.2	280.56
497	2.0667	1677.1	1260.2	274.49	1567.7	1487.5	463.27	1532.1	1477.2	112.66	1569.8	1814.7	278.57	1667.8	979.72	403.61	1632.7	994.04	153.55	1443.4	1017.3	339.36	1440.4	1024.5	258.3	1595.9	903.06	483.76	1496.1	921.12	109.03	1583.9	1068.6	462.88	1530.5	1078	123.19	1420.5	979.3	299.48	1691.1	659.94	476.9	1791.7	618.7	435.41	1730.8	579.11	460.57	1752.3	720.92	456.88	1782.2	533.31	449.85	1757.7	513.8	315.07	1805.8	300.56	448.86	1900.7	259.43	412.53	1836.1	237.86	435.45	1867.5	321.13	433.88	1901	135.42	420	1916.3	161.15	331.03	1861.9	76.799	360.52	1885.4	56.162	329.38	1880.8	49.814	394.17	2032	124.88	447.95	2063.2	149.97	334.05	2105.3	196.99	383.91	1430.9	701.25	129.54	1491.4	588.43	133.05	1421.2	612.31	141.06	1496.5	677.89	116.7	1437	508.85	146.82	1444.8	496.92	273.54	1309.6	351.24	155.8	1359.8	251.3	160.2	1299.2	274.64	165.15	1370.5	326.82	150.12	1306.3	108.62	184.74	1309.8	119.14	279.13	1226.4	80.998	229.9	1230.6	53.557	261.55	1228.8	55.943	199.36	1411.3	43.043	161.74	1442.3	41.784	279.06	1500.9	50.035	231.29	1500.6	1534.6	297.05	1415.8	1279.3	281.33
498	2.0708	1682.2	1259.1	274.73	1573.3	1486.4	463.86	1537	1476.2	113.29	1574.9	1813.9	279.24	1673.2	978.65	403.59	1637.3	993.02	153.66	1448.7	1016.4	340.14	1445.4	1023.7	259.09	1601.6	902.1	484.05	1500.4	920.47	109.61	1589.5	1067.5	463.22	1535.1	1077.1	123.65	1425.6	978.48	300.33	1696.3	658.99	477.38	1796.7	617.63	435.69	1735.9	578.1	461.12	1757.3	719.9	457	1787.4	532.52	450.47	1762.8	512.54	315.66	1814.1	300.06	449.49	1909.6	260.27	413.06	1845.3	237.82	435.98	1875.5	321.51	434.45	1911.6	136.26	420.46	1926.5	162.23	331.51	1873.5	76.954	361.05	1897.2	56.709	329.86	1892.6	50.343	394.61	2042.6	127.74	448.52	2073.6	153.23	334.66	2114.9	200.89	384.57	1434	701.14	130.08	1494.2	587.97	133.26	1424.1	612.2	141.56	1499.6	677.42	117.01	1439.3	508.59	147.15	1447.5	496.52	273.89	1311.2	351.67	156.24	1360.9	251.46	160.48	1300.3	275.13	165.57	1372	326.92	150.41	1306.5	109.05	185.09	1310.3	119.48	279.44	1226.6	81.569	230.31	1230.8	54.041	261.9	1228.9	56.557	199.72	1411.3	43.083	161.84	1442.4	41.66	279.14	1501	49.794	231.29	1505.9	1533.7	297.76	1421	1278.4	282.11
